<svg width="561" height="355" viewBox="0 0 561 355" fill="none" xmlns="http://www.w3.org/2000/svg">
<g filter="url(#filter0_b_3_2520)">
<rect width="561" height="355" rx="23.6755" fill="url(#paint0_linear_3_2520)"/>
<rect width="561" height="355" rx="23.6755" fill="url(#paint1_linear_3_2520)" fill-opacity="0.2"/>
</g>
<mask id="mask0_3_2520" style="mask-type:alpha" maskUnits="userSpaceOnUse" x="0" y="0" width="561" height="355">
<rect width="561" height="355" rx="24" fill="url(#paint2_linear_3_2520)"/>
<rect width="561" height="355" rx="24" fill="url(#paint3_linear_3_2520)" fill-opacity="0.2"/>
</mask>
<g mask="url(#mask0_3_2520)">
<g filter="url(#filter1_f_3_2520)">
<path d="M703.616 -209.151C738.465 -137.915 645.41 -20.8245 495.772 52.3775C346.134 125.579 196.579 127.173 161.73 55.9367C126.882 -15.2995 219.937 -132.39 369.575 -205.592C519.212 -278.794 668.768 -280.387 703.616 -209.151Z" fill="url(#paint4_linear_3_2520)"/>
<path d="M703.616 -209.151C738.465 -137.915 645.41 -20.8245 495.772 52.3775C346.134 125.579 196.579 127.173 161.73 55.9367C126.882 -15.2995 219.937 -132.39 369.575 -205.592C519.212 -278.794 668.768 -280.387 703.616 -209.151Z" fill="url(#paint5_linear_3_2520)" fill-opacity="0.2"/>
</g>
<g filter="url(#filter2_f_3_2520)">
<path d="M621.984 -262.015C656.833 -190.779 563.778 -73.6887 414.14 -0.486757C264.503 72.7152 114.947 74.3087 80.0987 3.07247C45.2502 -68.1638 138.305 -185.254 287.943 -258.456C437.58 -331.658 587.136 -333.252 621.984 -262.015Z" fill="url(#paint6_linear_3_2520)"/>
<path d="M621.984 -262.015C656.833 -190.779 563.778 -73.6887 414.14 -0.486757C264.503 72.7152 114.947 74.3087 80.0987 3.07247C45.2502 -68.1638 138.305 -185.254 287.943 -258.456C437.58 -331.658 587.136 -333.252 621.984 -262.015Z" fill="url(#paint7_linear_3_2520)" fill-opacity="0.2"/>
</g>
<rect x="-2" y="0.233398" width="568" height="355" fill="url(#paint8_linear_3_2520)"/>
<rect x="-2" y="0.233398" width="568" height="355" fill="url(#paint9_linear_3_2520)" fill-opacity="0.2"/>
</g>
<defs>
<filter id="filter0_b_3_2520" x="-35.7" y="-35.7" width="632.4" height="426.4" filterUnits="userSpaceOnUse" color-interpolation-filters="sRGB">
<feFlood flood-opacity="0" result="BackgroundImageFix"/>
<feGaussianBlur in="BackgroundImageFix" stdDeviation="17.85"/>
<feComposite in2="SourceAlpha" operator="in" result="effect1_backgroundBlur_3_2520"/>
<feBlend mode="normal" in="SourceGraphic" in2="effect1_backgroundBlur_3_2520" result="shape"/>
</filter>
<filter id="filter1_f_3_2520" x="67.418" y="-348.553" width="730.511" height="543.892" filterUnits="userSpaceOnUse" color-interpolation-filters="sRGB">
<feFlood flood-opacity="0" result="BackgroundImageFix"/>
<feBlend mode="normal" in="SourceGraphic" in2="BackgroundImageFix" result="shape"/>
<feGaussianBlur stdDeviation="43.5" result="effect1_foregroundBlur_3_2520"/>
</filter>
<filter id="filter2_f_3_2520" x="-14.2139" y="-401.417" width="730.511" height="543.892" filterUnits="userSpaceOnUse" color-interpolation-filters="sRGB">
<feFlood flood-opacity="0" result="BackgroundImageFix"/>
<feBlend mode="normal" in="SourceGraphic" in2="BackgroundImageFix" result="shape"/>
<feGaussianBlur stdDeviation="43.5" result="effect1_foregroundBlur_3_2520"/>
</filter>
<linearGradient id="paint0_linear_3_2520" x1="542" y1="327" x2="20" y2="19" gradientUnits="userSpaceOnUse">
<stop offset="0.15625" stop-color="#230326"/>
<stop offset="0.364583" stop-color="#A92DB4" stop-opacity="0.752707"/>
<stop offset="0.447917"/>
<stop offset="0.552083" stop-color="#15339D"/>
<stop offset="0.651042" stop-color="#1F022D"/>
</linearGradient>
<linearGradient id="paint1_linear_3_2520" x1="280.5" y1="0" x2="280.5" y2="355" gradientUnits="userSpaceOnUse">
<stop offset="0.329577"/>
<stop offset="0.419718" stop-opacity="0.971787"/>
<stop offset="0.543662"/>
<stop offset="0.557292" stop-opacity="0.941344"/>
<stop offset="0.854167"/>
</linearGradient>
<linearGradient id="paint2_linear_3_2520" x1="542" y1="327" x2="20" y2="19" gradientUnits="userSpaceOnUse">
<stop offset="0.15625" stop-color="#230326"/>
<stop offset="0.364583" stop-color="#A92DB4" stop-opacity="0.752707"/>
<stop offset="0.447917"/>
<stop offset="0.552083" stop-color="#15339D"/>
<stop offset="0.651042" stop-color="#1F022D"/>
</linearGradient>
<linearGradient id="paint3_linear_3_2520" x1="280.5" y1="0" x2="280.5" y2="355" gradientUnits="userSpaceOnUse">
<stop offset="0.329577"/>
<stop offset="0.419718" stop-opacity="0.971787"/>
<stop offset="0.543662"/>
<stop offset="0.557292" stop-opacity="0.941344"/>
<stop offset="0.854167"/>
</linearGradient>
<linearGradient id="paint4_linear_3_2520" x1="738.409" y1="-91.5353" x2="156.066" y2="-215.737" gradientUnits="userSpaceOnUse">
<stop offset="0.15625" stop-color="#230326"/>
<stop offset="0.364583" stop-color="#A92DB4" stop-opacity="0.752707"/>
<stop offset="0.447917"/>
<stop offset="0.552083" stop-color="#15339D"/>
<stop offset="0.651042" stop-color="#1F022D"/>
</linearGradient>
<linearGradient id="paint5_linear_3_2520" x1="369.575" y1="-205.592" x2="495.772" y2="52.3775" gradientUnits="userSpaceOnUse">
<stop offset="0.329577"/>
<stop offset="0.419718" stop-opacity="0.971787"/>
<stop offset="0.543662"/>
<stop offset="0.557292" stop-opacity="0.941344"/>
<stop offset="0.854167"/>
</linearGradient>
<linearGradient id="paint6_linear_3_2520" x1="656.777" y1="-144.4" x2="74.4346" y2="-268.601" gradientUnits="userSpaceOnUse">
<stop offset="0.15625" stop-color="#230326"/>
<stop offset="0.364583" stop-color="#A92DB4" stop-opacity="0.752707"/>
<stop offset="0.447917"/>
<stop offset="0.552083" stop-color="#15339D"/>
<stop offset="0.651042" stop-color="#1F022D"/>
</linearGradient>
<linearGradient id="paint7_linear_3_2520" x1="287.943" y1="-258.456" x2="414.14" y2="-0.486748" gradientUnits="userSpaceOnUse">
<stop offset="0.329577"/>
<stop offset="0.419718" stop-opacity="0.971787"/>
<stop offset="0.543662"/>
<stop offset="0.557292" stop-opacity="0.941344"/>
<stop offset="0.854167"/>
</linearGradient>
<linearGradient id="paint8_linear_3_2520" x1="546.763" y1="327.233" x2="21.6547" y2="13.5334" gradientUnits="userSpaceOnUse">
<stop offset="0.15625" stop-color="#230326"/>
<stop offset="0.364583" stop-color="#A92DB4" stop-opacity="0.752707"/>
<stop offset="0.447917"/>
<stop offset="0.552083" stop-color="#15339D"/>
<stop offset="0.651042" stop-color="#1F022D"/>
</linearGradient>
<linearGradient id="paint9_linear_3_2520" x1="282" y1="0.233398" x2="282" y2="355.233" gradientUnits="userSpaceOnUse">
<stop offset="0.329577"/>
<stop offset="0.419718" stop-opacity="0.971787"/>
<stop offset="0.543662"/>
<stop offset="0.557292" stop-opacity="0.941344"/>
<stop offset="0.854167"/>
</linearGradient>
</defs>
</svg>
