<svg width="569" height="363" viewBox="0 0 569 363" fill="none" xmlns="http://www.w3.org/2000/svg">
<g filter="url(#filter0_d_823_192)">
<path d="M4 50C4 22.3858 26.3858 0 54 0H515C542.614 0 565 22.3858 565 50V305C565 332.614 542.614 355 515 355H54C26.3858 355 4 332.614 4 305V50Z" fill="url(#paint0_linear_823_192)" shape-rendering="crispEdges"/>
<path d="M4 50C4 22.3858 26.3858 0 54 0H515C542.614 0 565 22.3858 565 50V305C565 332.614 542.614 355 515 355H54C26.3858 355 4 332.614 4 305V50Z" fill="black" fill-opacity="0.2" shape-rendering="crispEdges"/>
</g>
<defs>
<filter id="filter0_d_823_192" x="0" y="0" width="569" height="363" filterUnits="userSpaceOnUse" color-interpolation-filters="sRGB">
<feFlood flood-opacity="0" result="BackgroundImageFix"/>
<feColorMatrix in="SourceAlpha" type="matrix" values="0 0 0 0 0 0 0 0 0 0 0 0 0 0 0 0 0 0 127 0" result="hardAlpha"/>
<feOffset dy="4"/>
<feGaussianBlur stdDeviation="2"/>
<feComposite in2="hardAlpha" operator="out"/>
<feColorMatrix type="matrix" values="0 0 0 0 0 0 0 0 0 0 0 0 0 0 0 0 0 0 0.25 0"/>
<feBlend mode="normal" in2="BackgroundImageFix" result="effect1_dropShadow_823_192"/>
<feBlend mode="normal" in="SourceGraphic" in2="effect1_dropShadow_823_192" result="shape"/>
</filter>
<linearGradient id="paint0_linear_823_192" x1="284.5" y1="0" x2="284.5" y2="355" gradientUnits="userSpaceOnUse">
<stop stop-color="#701667"/>
<stop offset="1" stop-color="#421AE2" stop-opacity="0"/>
</linearGradient>
</defs>
</svg>
